<?xml version="1.0" standalone="no"?>
<!DOCTYPE svg PUBLIC "-//W3C//DTD SVG 1.1//EN" "http://www.w3.org/Graphics/SVG/1.1/DTD/svg11.dtd" >
<svg>
<metadata>
Created by FontForge 20110222 at Tue Feb 21 20:51:05 2012
 By www-data
Held by Jacob King. All commercial use must be liscensed. 
</metadata>
<defs>
<font id="JKAbode-LightDemo" horiz-adv-x="542" >
  <font-face 
    font-family="JK Abode"
    font-weight="300"
    font-stretch="normal"
    units-per-em="1000"
    panose-1="2 0 0 0 0 0 0 0 0 0"
    ascent="750"
    descent="-250"
    x-height="430"
    cap-height="739"
    bbox="0 -244 828.048 820"
    underline-thickness="50"
    underline-position="-50"
    unicode-range="U+0020-201E"
  />
    <missing-glyph />
    <glyph glyph-name="space" unicode=" " horiz-adv-x="209" 
 />
    <glyph glyph-name="b" unicode="b" 
d="M33 694l45 46l-1 -488q0 -43 16 -81.5t44 -67.5t66 -46t81 -17t80.5 17t66 46t45 67.5t16.5 81.5t-16.5 81t-44.5 66t-65.5 44.5t-80.5 16.5q-14 0 -27.5 -2t-27.5 -5q-2 7 -4.5 14t-5.5 14q-2 6 -5 13q17 5 34.5 7.5t35.5 2.5q51 0 97 -20t80 -54.5t54 -80t20 -97.5
q0 -51 -20 -97t-54 -80.5t-80 -54.5t-97 -20t-97 20t-81 54.5t-55.5 80.5t-18.5 97v442z" />
    <glyph glyph-name="c" unicode="c" horiz-adv-x="473" 
d="M450 73q-35 -36 -81 -55t-97 -19t-97 20t-80 54.5t-54 80t-20 97.5q0 51 20 97t54 80.5t80 54.5t97 20t97 -19.5t81 -54.5l-30 -32q-29 29 -66.5 45.5t-81.5 16.5q-43 0 -80.5 -16.5t-65.5 -45t-44.5 -66t-16.5 -80.5t16.5 -81t44.5 -66t65.5 -44.5t80.5 -16.5
q42 0 78 15t64 41z" />
    <glyph glyph-name="d" unicode="d" 
d="M509 251q1 -52 -19 -97.5t-55 -80t-81 -54.5t-97 -20t-97 20t-80 54.5t-54 80t-20 97.5q0 51 20 97t54 80.5t80 54.5t97 20q18 0 35.5 -2.5t34.5 -7.5q-2 -4 -3 -7l-2 -6q-3 -8 -6 -14.5t-5 -13.5q-13 3 -26.5 5t-27.5 2q-43 0 -80.5 -16.5t-66 -45t-45 -66t-16.5 -80.5
t16.5 -81.5t45 -67.5t66.5 -46t81 -17t81 17t66 46t44 67.5t16 81.5l-1 488l45 -46v-442z" />
    <glyph glyph-name="e" unicode="e" horiz-adv-x="544" 
d="M526 251q0 -51 -19 -96.5t-55 -81.5q-35 -36 -81 -55t-97 -19q-8 0 -15.5 0.5t-15.5 1.5q-47 6 -87 28t-69.5 55.5t-46.5 76.5t-17 90q0 51 19 96.5t54 81.5q36 35 81.5 54.5t96.5 19.5t97 -19.5t81 -54.5l31 -31l-173 -173l-61 1l172 172q-29 29 -66.5 45t-80.5 16
t-80.5 -16.5t-65.5 -45t-44.5 -66t-16.5 -80.5q0 -40 14 -75t38.5 -62.5t57.5 -45.5t71 -23q7 -1 13 -1.5t13 -0.5q43 0 81 16.5t66 44.5t44.5 66t16.5 81h44v0z" />
    <glyph glyph-name="f" unicode="f" horiz-adv-x="281" 
d="M73 391q37 50 89.5 78.5t118.5 30.5l-1 -40q-41 0 -77.5 -15.5t-64.5 -42.5t-45 -63t-20 -76l1 -179v-34v-50h-45v50v198v240q-2 50 18.5 96.5t55.5 81.5t81 55t97 19l-1 -40q-43 0 -81 -17t-66 -46t-44 -67.5t-16 -81.5v-97v0z" />
    <glyph glyph-name="g" unicode="g" horiz-adv-x="541" 
d="M510 -87q0 -87 -54 -155l-33 30q17 21 29 47t12 54l1 361q0 43 -16 81.5t-44 67.5t-66 46t-81 17t-80.5 -17t-66 -46t-45 -67.5t-16.5 -81.5t16.5 -81t44.5 -66t65.5 -44.5t80.5 -16.5q14 0 27.5 2t26.5 5q3 -7 5.5 -14t5.5 -14q1 -6 5 -13q-17 -5 -34.5 -7.5t-35.5 -2.5
q-51 0 -97 20t-80 54.5t-54 80t-20 97.5q0 48 19 93.5t52.5 81t79.5 56.5t100 21q51 0 97 -20t81 -54.5t55 -80.5t19 -97v-337h1z" />
    <glyph glyph-name="h" unicode="h" horiz-adv-x="545" 
d="M537 0h-44v249q0 43 -16 81.5t-44 67.5t-65.5 46t-80.5 17h-2h-1q-42 0 -79.5 -16.5t-65.5 -45t-44.5 -66.5t-17.5 -80v-3v-1v-249h-44v692l45 46v-346q32 49 86.5 78.5t117.5 30.5h3h1h3q51 -1 95.5 -21t77.5 -54t53 -79.5t22 -97.5v-249z" />
    <glyph glyph-name="i" unicode="i" horiz-adv-x="101" 
d="M74 622h-45v71l45 46v-117zM29 500h45v-499h-45v499z" />
    <glyph glyph-name="j" unicode="j" horiz-adv-x="118" 
d="M90 -86q0 -43 -13.5 -82.5t-39.5 -72.5l-33 29q17 22 29 47.5t12 54.5v610h45v-586z" />
    <glyph glyph-name="k" unicode="k" horiz-adv-x="428" 
d="M422 39v-40h-40v41v1q0 43 -17 80.5t-46 65.5t-67.5 44t-81.5 16h-92v1v-249h-45v692l45 46v-444h63q43 0 81.5 16t67.5 44t46 65.5t17 80.5h40v-1v-1q-1 -50 -20 -95t-54 -80q-26 -27 -62 -46q51 -18 91 -58q35 -35 54 -80t20 -95v-3v-1zM353 497v1v-1z" />
    <glyph glyph-name="l" unicode="l" horiz-adv-x="105" 
d="M77 0h-45v692l45 46v-738v0z" />
    <glyph glyph-name="m" unicode="m" horiz-adv-x="855" 
d="M826 1h-44v249q0 43 -16 81.5t-44 67.5t-66 46t-81 17h-1h-1q-31 0 -59.5 -9t-52.5 -25l-33 -27l-33 27q-24 16 -52 25t-59 9h-2h-1q-43 0 -80.5 -17t-65.5 -46t-44.5 -67.5t-16.5 -81.5v-249h-44v249q1 51 20 96.5t54 81.5q35 35 80 54t95 20h3h1h3q38 -1 74.5 -12.5
t67.5 -34.5q64 45 143 47h2h1h1h2q50 -1 95 -20t80 -54q36 -36 55 -81.5t19 -96.5v-249z" />
    <glyph glyph-name="n" unicode="n" horiz-adv-x="559" 
d="M532 1h-44v249q0 43 -16 81.5t-44 67.5t-66 46t-81 17h-1h-1q-43 0 -81 -17t-66 -46t-44 -67.5t-16 -81.5l1 -249h-45v249q0 49 19.5 94.5t53 80t79 55.5t97.5 22h2h1h3q51 -1 95.5 -21t78 -54t53.5 -79.5t22 -97.5v-249z" />
    <glyph glyph-name="o" unicode="o" horiz-adv-x="548" 
d="M274 -2q-52 -2 -97.5 18.5t-80 55.5t-54.5 81.5t-20 96.5q0 51 20 97t54.5 80.5t80 54.5t97.5 20q51 0 97 -20t80.5 -54.5t54.5 -80.5t20 -97q0 -50 -20 -96.5t-54.5 -81.5t-80.5 -55.5t-97 -18.5zM274 458q-43 0 -81 -16.5t-66 -44.5t-44.5 -66t-16.5 -81t16.5 -81
t44.5 -66t66 -44.5t81 -16.5t80.5 16.5t66 44.5t45 66t16.5 81t-16.5 81t-45 66t-66 44.5t-80.5 16.5z" />
    <glyph glyph-name="p" unicode="p" 
d="M33 249q-2 52 18.5 97.5t55.5 80t81 54.5t97 20t97 -20t80 -54.5t54 -80t20 -97.5q0 -51 -19 -96.5t-54 -81.5q-36 -35 -81.5 -54t-96.5 -19q-37 0 -70 9q2 4 3 7t2 7q5 11 10 28q29 -8 55 -8q43 0 80.5 16.5t65.5 45t44.5 66t16.5 80.5t-16.5 81.5t-45 67.5t-66 46
t-80.5 17t-81 -17t-66 -46t-44 -67.5t-16 -81.5v-487l-44 45v442z" />
    <glyph glyph-name="q" unicode="q" horiz-adv-x="543" 
d="M510 -194l-44 -45v487q0 43 -16 81.5t-44 67.5t-66 46t-81 17t-81 -17t-66.5 -46t-45 -67.5t-16.5 -81.5t16.5 -80.5t45 -66t66 -45t80.5 -16.5q27 0 54 8q2 -8 5 -14.5t5 -13.5q2 -4 3 -7t3 -7q-35 -9 -70 -9q-51 0 -97 20t-80.5 54t-54.5 80t-20 97q0 52 20 97.5
t54.5 80t80.5 54.5t97 20q50 0 96.5 -20t81.5 -54.5t55 -80t19 -97.5v-442z" />
    <glyph glyph-name="r" unicode="r" horiz-adv-x="279" 
d="M26 250q-2 50 18.5 96t55.5 81t81.5 55t96.5 19v-44q-43 0 -81 -16.5t-66 -44.5t-44.5 -65.5t-16.5 -80.5v-250h-44v250z" />
    <glyph glyph-name="s" unicode="s" horiz-adv-x="465" 
d="M284 428q36 36 81.5 55t96.5 19v-44q-43 0 -80.5 -16t-65.5 -44t-44.5 -65.5t-17.5 -79.5q1 -50 -19 -96.5t-55 -81.5t-81 -55.5t-96 -18.5v44q42 0 79.5 16t66 44t45 65.5t16.5 79.5q0 51 19 97t55 81z" />
    <glyph glyph-name="t" unicode="t" horiz-adv-x="280" 
d="M72 254q0 -43 16.5 -81t44.5 -66t66 -44.5t81 -16.5v-44q-51 -2 -97 18.5t-81 55.5t-55.5 81t-18.5 97v443l44 44v-238h208v-44h-208v-205z" />
    <glyph glyph-name="u" unicode="u" horiz-adv-x="565" 
d="M31 501h44v-249q0 -43 16 -81t44 -67t65.5 -46t80.5 -17h2h1q43 0 80.5 17t65.5 46t44.5 67t16.5 81l-1 249h45v-249q1 -51 -19 -96.5t-54.5 -80t-80 -54.5t-95.5 -20h-3h-1h-3q-50 0 -95.5 20t-80 54.5t-54.5 80t-18 96.5v249z" />
    <glyph glyph-name="v" unicode="v" horiz-adv-x="521" 
d="M508 480l-223 -479h-49l-223 477l41 22l207 -447l208 447l39 -20v0z" />
    <glyph glyph-name="w" unicode="w" horiz-adv-x="861" 
d="M32 500h44v-249q0 -43 16.5 -81t44.5 -67t65.5 -46t80.5 -17h1h2q62 0 111 34l33 27l33 -27q49 -34 112 -34h1h1q43 0 81 17t66 46t44 67t16 81v249h44v-249q1 -51 -19 -96.5t-54.5 -80t-80 -54.5t-95.5 -20h-3h-1h-2q-79 0 -143 46q-63 -46 -142 -46h-3h-1h-3
q-50 0 -95.5 20t-80 54.5t-54.5 80t-19 96.5v249z" />
    <glyph glyph-name="x" unicode="x" horiz-adv-x="570" 
d="M389 256q33 -15 60.5 -39t47 -54.5t30 -65.5t10.5 -71q0 -7 -0.5 -13t-1.5 -13h-44q1 7 1.5 13t0.5 13q0 42 -15.5 79t-42.5 65.5t-63.5 45t-78.5 18.5h-8h-8q-42 -2 -78.5 -18.5t-63.5 -45t-42.5 -65.5t-15.5 -79q0 -7 0.5 -13t1.5 -13l-44 1q-1 6 -1.5 12.5t-0.5 12.5
q0 36 10.5 71t30 65.5t47 54.5t61.5 39q-34 14 -61.5 38t-47 54.5t-30 65.5t-10.5 71q0 11 1 16h44q-1 -5 -1 -16q0 -42 15.5 -79t42.5 -65t63.5 -45t78.5 -18h8h8q42 1 78.5 18t63.5 45t42.5 65t15.5 79q0 10 -1 15h44q1 -5 1 -15q0 -36 -10.5 -71t-30 -65t-46.5 -54
t-61 -39z" />
    <glyph glyph-name="y" unicode="y" horiz-adv-x="540" 
d="M509 -89q0 -88 -53 -155l-33 29q17 22 29 47.5t12 54.5l1 221q-35 -48 -88.5 -78t-118.5 -30q-52 0 -97.5 20t-80 54.5t-54.5 80t-20 97.5q0 51 19 96.5t55 81.5l31 -31q-29 -29 -45 -66.5t-16 -80.5t16.5 -81t44.5 -66t66 -44.5t81 -16.5q41 0 77.5 15t64.5 41.5
t45 61.5t20 76v10v13q-2 38 -16.5 72.5t-39.5 60.5l27 36q35 -36 54 -81.5t19 -96.5v-14v-327z" />
    <glyph glyph-name="z" unicode="z" horiz-adv-x="551" 
d="M99 63q14 -7 27.5 -12t30.5 -5l362 -1v-44h-338v-1q-43 0 -82.5 13.5t-72.5 39.5l33 32l370 371l-267 -1q-29 0 -54.5 -12t-47.5 -29l-29 33q67 53 155 53h351l-438 -437v0z" />
    <glyph glyph-name="zero" unicode="0" horiz-adv-x="556" 
d="M530 502v-249q0 -51 -19.5 -97t-54.5 -81t-80 -54t-95 -20h-3h-1h-3q-50 1 -95 20t-80 54t-54 81t-19 97v249q3 45 22 86.5t51 73.5q35 35 80 54t95 20h3h1h3q50 -1 95 -20t80 -54q32 -32 51 -73.5t22 -86.5h1zM279 41q43 0 80.5 17t65.5 46t44.5 67.5t16.5 81.5v249
q-3 40 -20.5 75t-45.5 61.5t-64 42t-77 15.5h-1h-2q-42 0 -79.5 -16.5t-65 -45t-44 -66.5t-17.5 -80v-4v-231q0 -43 16 -81.5t44 -67.5t65.5 -46t80.5 -17h2h1z" />
    <glyph glyph-name="one" unicode="1" horiz-adv-x="176" 
d="M145 730v-64v0v0v-666h-45v621l-69 -69l-31 31l145 147v0z" />
    <glyph glyph-name="two" unicode="2" horiz-adv-x="477" 
d="M461 46v-45h-444l45 45l304 304q24 27 37.5 62t13.5 73q0 43 -16.5 81t-45 66t-66 44.5t-80.5 16.5t-80.5 -16t-66.5 -45l-31 31q35 36 81 55t97 19t96.5 -19t81.5 -55q35 -35 54.5 -81t19.5 -97q0 -47 -16.5 -89t-46.5 -77l-1 -1l-271 -272h335z" />
    <glyph glyph-name="three" unicode="3" horiz-adv-x="472" 
d="M444 486q0 -63 -29 -118q29 -55 29 -118q0 -52 -20 -97.5t-54 -80t-80 -54.5t-97 -20t-97 19t-81 55l31 31q28 -29 65.5 -45t81.5 -16q43 0 80.5 16.5t65.5 44.5t44.5 66t16.5 81q0 39 -14 75l-10 22t-13 21q37 51 37 118q0 43 -16.5 81t-44.5 66t-65.5 44.5t-80.5 16.5
q-41 0 -76 -14t-63 -40l-28 35q35 30 77.5 46.5t89.5 16.5q50 0 96 -20t81 -54.5t55 -80.5t19 -97z" />
    <glyph glyph-name="six" unicode="6" horiz-adv-x="577" 
d="M421 740h65l-346 -344q-30 -30 -46 -69t-17 -79t14 -79t45 -69t69 -45t80 -14.5t80 16t69 45.5t45.5 68.5t15.5 78.5t-15.5 78.5t-45.5 68.5q-11 10 -21.5 18t-22.5 15q4 7 7 13.5t6 13.5q2 4 3 7t3 7q15 -9 29 -19.5t27 -23.5q36 -36 54 -82.5t18 -95t-18 -95t-54 -83.5
q-37 -36 -83.5 -54.5t-95 -18.5t-94.5 18t-83 55q-36 36 -54.5 83t-19 95.5t17.5 95t56 82.5z" />
    <glyph glyph-name="nine" unicode="9" horiz-adv-x="579" 
d="M157 0h-63l345 345q30 30 46 69t16.5 79t-14 79t-44.5 69t-69 45t-80 14.5t-80 -16t-69 -45.5t-45.5 -68.5t-15.5 -78.5t15.5 -78.5t45.5 -68.5q21 -21 44 -34l-3 -6.5t-6 -13.5t-6 -13.5l-3 -6.5q-33 19 -57 43q-37 35 -55 81.5t-17.5 95.5t19 96t53.5 83q37 36 83.5 54
t95 18t95 -18t82.5 -54t54.5 -82.5t19 -95.5t-17.5 -96t-55 -82z" />
    <glyph glyph-name="eight" unicode="8" horiz-adv-x="556" 
d="M502 366q28 -54 28 -115q0 -51 -19.5 -96.5t-54.5 -81.5q-36 -35 -81.5 -54t-96.5 -19t-97 19t-81 54q-27 27 -45 61.5t-25 71.5q-2 11 -3 22.5t-1 22.5q0 60 28 116q-28 54 -28 115q0 51 19 96.5t55 81.5q35 35 81 54t97 19t96.5 -19t81.5 -54q35 -36 54.5 -81.5
t19.5 -96.5q0 -60 -28 -116zM278 503q41 0 78.5 -12.5t69.5 -35.5q1 -1 15 -12.5t32 -32.5q22 56 11 116t-56 105q-30 30 -69 45t-79.5 14.5t-79.5 -16t-69 -45.5q-25 -25 -40 -56t-19.5 -63.5t1.5 -65.5t23 -63q3 -5 3.5 -6t3.5 -6q30 -42 75.5 -68.5t99.5 -26.5v-44
q-51 0 -97 19t-81 55q-5 5 -9 9.5t-9 9.5q-21 -56 -10.5 -116t55.5 -105q30 -30 69 -45t80 -14.5t80 16t69 45.5q26 26 41 57.5t18.5 65.5t-3.5 67.5t-25 63.5q-29 45 -76 73t-102 28v44z" />
    <glyph glyph-name="seven" unicode="7" horiz-adv-x="527" 
d="M81 0h-53l418 690h-438l46 46h471z" />
    <glyph glyph-name="four" unicode="4" horiz-adv-x="509" 
d="M480 363v-46v0v-318h-45v318l-435 1l417 417h64l-372 -372h371v0z" />
    <glyph glyph-name="five" unicode="5" horiz-adv-x="464" 
d="M378 431q35 -36 54 -81.5t19 -96.5t-19 -96.5t-54 -81.5q-36 -35 -81.5 -54.5t-96.5 -19.5t-97 19.5t-81 54.5l31 31q30 -30 69 -45.5t79.5 -16t79.5 14.5t69 45t45 69.5t15 80t-15 80t-45 69.5h-1q-30 27 -68.5 42.5t-80.5 15.5h-153v44v235h335l46 -46h-336v-189h108
q51 0 96.5 -19t81.5 -55z" />
    <glyph glyph-name="comma" unicode="," horiz-adv-x="109" 
d="M94 53q0 -43 -13.5 -82.5t-39.5 -72.5l-33 30q16 21 28 47t12 54v31h46v-7z" />
    <glyph glyph-name="period" unicode="." horiz-adv-x="108" 
d="M78 0h-45v105h45v-105z" />
    <glyph glyph-name="a" unicode="a" horiz-adv-x="552" 
d="M525 0h-44v250q0 42 -16.5 80t-44.5 66.5t-66 45t-81 16.5t-80.5 -16.5t-65.5 -45t-44.5 -66t-16.5 -80.5t16.5 -81t44.5 -66t65.5 -44.5t80.5 -16.5q14 0 27.5 2t26.5 5q4 -13 11 -28q1 -6 5 -13q-17 -5 -34.5 -7.5t-35.5 -2.5q-51 0 -97 20t-80 54.5t-54 80t-20 97.5
q0 48 19 93.5t52.5 81t79.5 56.5t100 21q51 0 97 -20t80.5 -54.5t54.5 -80.5t20 -97v-250z" />
    <glyph glyph-name="exclam" unicode="!" horiz-adv-x="102" 
d="M30 190v507l45 47v-554h-45zM30 0v105l45 -1v-104h-45z" />
    <glyph glyph-name="question" unicode="?" horiz-adv-x="442" 
d="M291 0h-45v45h45v-45zM430 478q0 -48 -17.5 -91.5t-48.5 -77.5q-2 -2 -3.5 -4t-3.5 -4q-30 -29 -47.5 -67t-17.5 -83h-44q0 48 17.5 91.5t48.5 77.5l8 8q29 29 46.5 67t17.5 83q0 43 -16.5 81t-44.5 66t-65.5 44.5t-80.5 16.5q-42 0 -78 -15t-64 -41l-36 26q35 36 81 55
t97 19t97 -20t80 -54.5t54 -80t20 -97.5z" />
    <glyph glyph-name="hyphen" unicode="-" horiz-adv-x="416" 
d="M383 223h-350v45h350v-45z" />
    <glyph glyph-name="parenleft" unicode="(" horiz-adv-x="282" 
d="M70 110q0 -43 16 -81.5t44 -67.5t66 -46t81 -17l1 -40h-1h-2q-50 1 -96 21t-80.5 54.5t-54.5 80t-18 96.5v454q-2 51 18 96.5t54.5 80t80.5 54.5t96 21h2h1l-1 -40q-43 0 -81 -17t-66 -46t-44 -67.5t-16 -81.5v-454v0z" />
    <glyph glyph-name="parenright" unicode=")" horiz-adv-x="282" 
d="M212 114v454q0 43 -16 81.5t-44 67.5t-65.5 46t-80.5 17q-1 0 -1 6v14q0 9 -1 20h1h3q50 -1 95.5 -21t80 -54.5t54 -80t18.5 -96.5v-454q1 -51 -18.5 -96.5t-54 -80t-80 -54.5t-95.5 -21h-3h-1q1 11 1 20v14t1 6q43 0 80.5 17t65.5 46t44 67.5t16 81.5z" />
    <glyph glyph-name="slash" unicode="/" horiz-adv-x="289" 
d="M47 1h-45l240 749h45l-240 -749v0z" />
    <glyph glyph-name="A" unicode="A" horiz-adv-x="570" 
d="M525 0h-44v250q0 42 -16.5 80t-44.5 66.5t-66 45t-81 16.5t-80.5 -16.5t-65.5 -45t-44.5 -66t-16.5 -80.5t16.5 -81t44.5 -66t65.5 -44.5t80.5 -16.5q14 0 27.5 2t26.5 5q4 -13 11 -28q1 -6 5 -13q-17 -5 -34.5 -7.5t-35.5 -2.5q-51 0 -97 20t-80 54.5t-54 80t-20 97.5
q0 48 19 93.5t52.5 81t79.5 56.5t100 21q51 0 97 -20t80.5 -54.5t54.5 -80.5t20 -97v-250z" />
    <glyph glyph-name="B" unicode="B" 
d="M33 694l45 46l-1 -488q0 -43 16 -81.5t44 -67.5t66 -46t81 -17t80.5 17t66 46t45 67.5t16.5 81.5t-16.5 81t-44.5 66t-65.5 44.5t-80.5 16.5q-14 0 -27.5 -2t-27.5 -5q-2 7 -4.5 14t-5.5 14q-2 6 -5 13q17 5 34.5 7.5t35.5 2.5q51 0 97 -20t80 -54.5t54 -80t20 -97.5
q0 -51 -20 -97t-54 -80.5t-80 -54.5t-97 -20t-97 20t-81 54.5t-55.5 80.5t-18.5 97v442z" />
    <glyph glyph-name="C" unicode="C" horiz-adv-x="473" 
d="M450 73q-35 -36 -81 -55t-97 -19t-97 20t-80 54.5t-54 80t-20 97.5q0 51 20 97t54 80.5t80 54.5t97 20t97 -19.5t81 -54.5l-30 -32q-29 29 -66.5 45.5t-81.5 16.5q-43 0 -80.5 -16.5t-65.5 -45t-44.5 -66t-16.5 -80.5t16.5 -81t44.5 -66t65.5 -44.5t80.5 -16.5
q42 0 78 15t64 41z" />
    <glyph glyph-name="D" unicode="D" 
d="M509 251q1 -52 -19 -97.5t-55 -80t-81 -54.5t-97 -20t-97 20t-80 54.5t-54 80t-20 97.5q0 51 20 97t54 80.5t80 54.5t97 20q18 0 35.5 -2.5t34.5 -7.5q-2 -4 -3 -7l-2 -6q-3 -8 -6 -14.5t-5 -13.5q-13 3 -26.5 5t-27.5 2q-43 0 -80.5 -16.5t-66 -45t-45 -66t-16.5 -80.5
t16.5 -81.5t45 -67.5t66.5 -46t81 -17t81 17t66 46t44 67.5t16 81.5l-1 488l45 -46v-442z" />
    <glyph glyph-name="E" unicode="E" horiz-adv-x="544" 
d="M526 251q0 -51 -19 -96.5t-55 -81.5q-35 -36 -81 -55t-97 -19q-8 0 -15.5 0.5t-15.5 1.5q-47 6 -87 28t-69.5 55.5t-46.5 76.5t-17 90q0 51 19 96.5t54 81.5q36 35 81.5 54.5t96.5 19.5t97 -19.5t81 -54.5l31 -31l-173 -173l-61 1l172 172q-29 29 -66.5 45t-80.5 16
t-80.5 -16.5t-65.5 -45t-44.5 -66t-16.5 -80.5q0 -40 14 -75t38.5 -62.5t57.5 -45.5t71 -23q7 -1 13 -1.5t13 -0.5q43 0 81 16.5t66 44.5t44.5 66t16.5 81h44v0z" />
    <glyph glyph-name="F" unicode="F" horiz-adv-x="281" 
d="M73 391q37 50 89.5 78.5t118.5 30.5l-1 -40q-41 0 -77.5 -15.5t-64.5 -42.5t-45 -63t-20 -76l1 -179v-34v-50h-45v50v198v240q-2 50 18.5 96.5t55.5 81.5t81 55t97 19l-1 -40q-43 0 -81 -17t-66 -46t-44 -67.5t-16 -81.5v-97v0z" />
    <glyph glyph-name="G" unicode="G" horiz-adv-x="541" 
d="M510 -87q0 -87 -54 -155l-33 30q17 21 29 47t12 54l1 361q0 43 -16 81.5t-44 67.5t-66 46t-81 17t-80.5 -17t-66 -46t-45 -67.5t-16.5 -81.5t16.5 -81t44.5 -66t65.5 -44.5t80.5 -16.5q14 0 27.5 2t26.5 5q3 -7 5.5 -14t5.5 -14q1 -6 5 -13q-17 -5 -34.5 -7.5t-35.5 -2.5
q-51 0 -97 20t-80 54.5t-54 80t-20 97.5q0 48 19 93.5t52.5 81t79.5 56.5t100 21q51 0 97 -20t81 -54.5t55 -80.5t19 -97v-337h1z" />
    <glyph glyph-name="I" unicode="I" horiz-adv-x="101" 
d="M74 622h-45v71l45 46v-117zM29 500h45v-499h-45v499z" />
    <glyph glyph-name="H" unicode="H" horiz-adv-x="545" 
d="M537 0h-44v249q0 43 -16 81.5t-44 67.5t-65.5 46t-80.5 17h-2h-1q-42 0 -79.5 -16.5t-65.5 -45t-44.5 -66.5t-17.5 -80v-3v-1v-249h-44v692l45 46v-346q32 49 86.5 78.5t117.5 30.5h3h1h3q51 -1 95.5 -21t77.5 -54t53 -79.5t22 -97.5v-249z" />
    <glyph glyph-name="J" unicode="J" horiz-adv-x="118" 
d="M90 -86q0 -43 -13.5 -82.5t-39.5 -72.5l-33 29q17 22 29 47.5t12 54.5v610h45v-586z" />
    <glyph glyph-name="K" unicode="K" horiz-adv-x="428" 
d="M422 39v-40h-40v41v1q0 43 -17 80.5t-46 65.5t-67.5 44t-81.5 16h-92v1v-249h-45v692l45 46v-444h63q43 0 81.5 16t67.5 44t46 65.5t17 80.5h40v-1v-1q-1 -50 -20 -95t-54 -80q-26 -27 -62 -46q51 -18 91 -58q35 -35 54 -80t20 -95v-3v-1zM353 497v1v-1z" />
    <glyph glyph-name="L" unicode="L" horiz-adv-x="105" 
d="M77 0h-45v692l45 46v-738v0z" />
    <glyph glyph-name="M" unicode="M" horiz-adv-x="855" 
d="M826 1h-44v249q0 43 -16 81.5t-44 67.5t-66 46t-81 17h-1h-1q-31 0 -59.5 -9t-52.5 -25l-33 -27l-33 27q-24 16 -52 25t-59 9h-2h-1q-43 0 -80.5 -17t-65.5 -46t-44.5 -67.5t-16.5 -81.5v-249h-44v249q1 51 20 96.5t54 81.5q35 35 80 54t95 20h3h1h3q38 -1 74.5 -12.5
t67.5 -34.5q64 45 143 47h2h1h1h2q50 -1 95 -20t80 -54q36 -36 55 -81.5t19 -96.5v-249z" />
    <glyph glyph-name="N" unicode="N" horiz-adv-x="559" 
d="M532 1h-44v249q0 43 -16 81.5t-44 67.5t-66 46t-81 17h-1h-1q-43 0 -81 -17t-66 -46t-44 -67.5t-16 -81.5l1 -249h-45v249q0 49 19.5 94.5t53 80t79 55.5t97.5 22h2h1h3q51 -1 95.5 -21t78 -54t53.5 -79.5t22 -97.5v-249z" />
    <glyph glyph-name="O" unicode="O" horiz-adv-x="548" 
d="M274 -2q-52 -2 -97.5 18.5t-80 55.5t-54.5 81.5t-20 96.5q0 51 20 97t54.5 80.5t80 54.5t97.5 20q51 0 97 -20t80.5 -54.5t54.5 -80.5t20 -97q0 -50 -20 -96.5t-54.5 -81.5t-80.5 -55.5t-97 -18.5zM274 458q-43 0 -81 -16.5t-66 -44.5t-44.5 -66t-16.5 -81t16.5 -81
t44.5 -66t66 -44.5t81 -16.5t80.5 16.5t66 44.5t45 66t16.5 81t-16.5 81t-45 66t-66 44.5t-80.5 16.5z" />
    <glyph glyph-name="P" unicode="P" 
d="M33 249q-2 52 18.5 97.5t55.5 80t81 54.5t97 20t97 -20t80 -54.5t54 -80t20 -97.5q0 -51 -19 -96.5t-54 -81.5q-36 -35 -81.5 -54t-96.5 -19q-37 0 -70 9q2 4 3 7t2 7q5 11 10 28q29 -8 55 -8q43 0 80.5 16.5t65.5 45t44.5 66t16.5 80.5t-16.5 81.5t-45 67.5t-66 46
t-80.5 17t-81 -17t-66 -46t-44 -67.5t-16 -81.5v-487l-44 45v442z" />
    <glyph glyph-name="Q" unicode="Q" horiz-adv-x="543" 
d="M510 -194l-44 -45v487q0 43 -16 81.5t-44 67.5t-66 46t-81 17t-81 -17t-66.5 -46t-45 -67.5t-16.5 -81.5t16.5 -80.5t45 -66t66 -45t80.5 -16.5q27 0 54 8q2 -8 5 -14.5t5 -13.5q2 -4 3 -7t3 -7q-35 -9 -70 -9q-51 0 -97 20t-80.5 54t-54.5 80t-20 97q0 52 20 97.5
t54.5 80t80.5 54.5t97 20q50 0 96.5 -20t81.5 -54.5t55 -80t19 -97.5v-442z" />
    <glyph glyph-name="R" unicode="R" horiz-adv-x="279" 
d="M26 250q-2 50 18.5 96t55.5 81t81.5 55t96.5 19v-44q-43 0 -81 -16.5t-66 -44.5t-44.5 -65.5t-16.5 -80.5v-250h-44v250z" />
    <glyph glyph-name="S" unicode="S" horiz-adv-x="465" 
d="M284 428q36 36 81.5 55t96.5 19v-44q-43 0 -80.5 -16t-65.5 -44t-44.5 -65.5t-17.5 -79.5q1 -50 -19 -96.5t-55 -81.5t-81 -55.5t-96 -18.5v44q42 0 79.5 16t66 44t45 65.5t16.5 79.5q0 51 19 97t55 81z" />
    <glyph glyph-name="T" unicode="T" horiz-adv-x="280" 
d="M72 254q0 -43 16.5 -81t44.5 -66t66 -44.5t81 -16.5v-44q-51 -2 -97 18.5t-81 55.5t-55.5 81t-18.5 97v443l44 44v-238h208v-44h-208v-205z" />
    <glyph glyph-name="U" unicode="U" horiz-adv-x="565" 
d="M31 501h44v-249q0 -43 16 -81t44 -67t65.5 -46t80.5 -17h2h1q43 0 80.5 17t65.5 46t44.5 67t16.5 81l-1 249h45v-249q1 -51 -19 -96.5t-54.5 -80t-80 -54.5t-95.5 -20h-3h-1h-3q-50 0 -95.5 20t-80 54.5t-54.5 80t-18 96.5v249z" />
    <glyph glyph-name="V" unicode="V" horiz-adv-x="521" 
d="M508 480l-223 -479h-49l-223 477l41 22l207 -447l208 447l39 -20v0z" />
    <glyph glyph-name="W" unicode="W" horiz-adv-x="861" 
d="M32 500h44v-249q0 -43 16.5 -81t44.5 -67t65.5 -46t80.5 -17h1h2q62 0 111 34l33 27l33 -27q49 -34 112 -34h1h1q43 0 81 17t66 46t44 67t16 81v249h44v-249q1 -51 -19 -96.5t-54.5 -80t-80 -54.5t-95.5 -20h-3h-1h-2q-79 0 -143 46q-63 -46 -142 -46h-3h-1h-3
q-50 0 -95.5 20t-80 54.5t-54.5 80t-19 96.5v249z" />
    <glyph glyph-name="X" unicode="X" horiz-adv-x="570" 
d="M389 256q33 -15 60.5 -39t47 -54.5t30 -65.5t10.5 -71q0 -7 -0.5 -13t-1.5 -13h-44q1 7 1.5 13t0.5 13q0 42 -15.5 79t-42.5 65.5t-63.5 45t-78.5 18.5h-8h-8q-42 -2 -78.5 -18.5t-63.5 -45t-42.5 -65.5t-15.5 -79q0 -7 0.5 -13t1.5 -13l-44 1q-1 6 -1.5 12.5t-0.5 12.5
q0 36 10.5 71t30 65.5t47 54.5t61.5 39q-34 14 -61.5 38t-47 54.5t-30 65.5t-10.5 71q0 11 1 16h44q-1 -5 -1 -16q0 -42 15.5 -79t42.5 -65t63.5 -45t78.5 -18h8h8q42 1 78.5 18t63.5 45t42.5 65t15.5 79q0 10 -1 15h44q1 -5 1 -15q0 -36 -10.5 -71t-30 -65t-46.5 -54
t-61 -39z" />
    <glyph glyph-name="Y" unicode="Y" horiz-adv-x="540" 
d="M509 -89q0 -88 -53 -155l-33 29q17 22 29 47.5t12 54.5l1 221q-35 -48 -88.5 -78t-118.5 -30q-52 0 -97.5 20t-80 54.5t-54.5 80t-20 97.5q0 51 19 96.5t55 81.5l31 -31q-29 -29 -45 -66.5t-16 -80.5t16.5 -81t44.5 -66t66 -44.5t81 -16.5q41 0 77.5 15t64.5 41.5
t45 61.5t20 76v10v13q-2 38 -16.5 72.5t-39.5 60.5l27 36q35 -36 54 -81.5t19 -96.5v-14v-327z" />
    <glyph glyph-name="Z" unicode="Z" horiz-adv-x="551" 
d="M99 63q14 -7 27.5 -12t30.5 -5l362 -1v-44h-338v-1q-43 0 -82.5 13.5t-72.5 39.5l33 32l370 371l-267 -1q-29 0 -54.5 -12t-47.5 -29l-29 33q67 53 155 53h351l-438 -437v0z" />
    <glyph glyph-name="quotesinglbase" unicode="&#x201a;" horiz-adv-x="109" 
d="M94 53q0 -43 -13.5 -82.5t-39.5 -72.5l-33 30q16 21 28 47t12 54v31h46v-7z" />
    <glyph glyph-name="quotedblbase" unicode="&#x201e;" horiz-adv-x="234" 
d="M94 53q0 -43 -13.5 -82.5t-39.5 -72.5l-33 30q16 21 28 47t12 54v31h46v-7zM194 53q0 -43 -13.5 -82.5t-39.5 -72.5l-33 30q16 21 28 47t12 54v31h46v-7z" />
    <glyph glyph-name="quotedblright" unicode="&#x201d;" horiz-adv-x="228" 
d="M94 493q0 -43 -13.5 -82.5t-39.5 -72.5l-33 30q16 21 28 47t12 54v31h46v-7zM194 493q0 -43 -13.5 -82.5t-39.5 -72.5l-33 30q16 21 28 47t12 54v31h46v-7z" />
    <glyph glyph-name="quotedblleft" unicode="&#x201c;" horiz-adv-x="251" 
d="M148 500h46v-31q0 -28 12 -54t28 -47l-33 -30q-26 33 -39.5 72.5t-13.5 82.5v7zM48 500h46v-31q0 -28 12 -54t28 -47l-33 -30q-26 33 -39.5 72.5t-13.5 82.5v7z" />
  </font>
</defs>
</svg>
